<svg xmlns="http://www.w3.org/2000/svg" width="990" height="1120" viewBox="0 0 990 1120"><rect width="990" height="1120" fill="#ecebdc"/><g transform="translate(0,0)"><text x="8" y="20" font-size="12">Bellweather · Orchard Common</text><rect x="8" y="30" width="288" height="216" fill="#99973b"/><rect x="8" y="126" width="288" height="24" fill="#b28049"/><rect x="32" y="42" width="24" height="24" fill="#416249"/><rect x="248" y="42" width="24" height="24" fill="#416249"/><rect x="32" y="210" width="24" height="24" fill="#416249"/><rect x="248" y="210" width="24" height="24" fill="#416249"/><rect x="92" y="66" width="24" height="42" fill="#416249"/><rect x="188" y="66" width="24" height="42" fill="#416249"/><rect x="92" y="168" width="24" height="42" fill="#416249"/><rect x="188" y="168" width="24" height="42" fill="#416249"/><rect x="137" y="72" width="30" height="24" fill="none" stroke="#f9d766" stroke-width="2"/><rect x="137" y="180" width="30" height="24" fill="none" stroke="#f9d766" stroke-width="2"/><rect x="137" y="126" width="30" height="24" fill="none" stroke="#f9d766" stroke-width="2"/><circle cx="63.5" cy="160.5" r="3" fill="#ba572f"/><circle cx="63.5" cy="118.5" r="3" fill="#683c21"/><circle cx="69.5" cy="205.5" r="3" fill="#ba572f"/><circle cx="69.5" cy="73.5" r="3" fill="#683c21"/><circle cx="240.5" cy="160.5" r="3" fill="#ba572f"/><circle cx="240.5" cy="118.5" r="3" fill="#683c21"/><circle cx="234.5" cy="205.5" r="3" fill="#ba572f"/><circle cx="234.5" cy="73.5" r="3" fill="#683c21"/><circle cx="51.5" cy="139.5" r="5" fill="#319cdf"/><circle cx="252.5" cy="139.5" r="5" fill="#dc603c"/></g><g transform="translate(330,0)"><text x="8" y="20" font-size="12">Bellweather · Millrace</text><rect x="8" y="30" width="240" height="216" fill="#849543"/><rect x="8" y="126" width="240" height="24" fill="#b28049"/><rect x="65" y="66" width="45" height="42" fill="#506228"/><rect x="146" y="66" width="45" height="42" fill="#506228"/><rect x="65" y="171" width="45" height="36" fill="#99973b"/><rect x="146" y="171" width="45" height="36" fill="#99973b"/><rect x="44" y="72" width="3" height="42" fill="#fff4b5" opacity="0.22"/><rect x="209" y="72" width="3" height="42" fill="#fff4b5" opacity="0.22"/><rect x="35" y="75" width="9" height="39" fill="#fff4b5" opacity="0.22"/><rect x="47" y="75" width="9" height="33" fill="#fff4b5" opacity="0.22"/><rect x="200" y="75" width="9" height="33" fill="#fff4b5" opacity="0.22"/><rect x="212" y="75" width="9" height="39" fill="#fff4b5" opacity="0.22"/><rect x="32" y="78" width="3" height="33" fill="#fff4b5" opacity="0.22"/><rect x="56" y="78" width="3" height="30" fill="#fff4b5" opacity="0.22"/><rect x="197" y="78" width="3" height="30" fill="#fff4b5" opacity="0.22"/><rect x="221" y="78" width="3" height="33" fill="#fff4b5" opacity="0.22"/><rect x="29" y="81" width="3" height="27" fill="#fff4b5" opacity="0.22"/><rect x="59" y="81" width="3" height="27" fill="#fff4b5" opacity="0.22"/><rect x="194" y="81" width="3" height="27" fill="#fff4b5" opacity="0.22"/><rect x="224" y="81" width="3" height="27" fill="#fff4b5" opacity="0.22"/><rect x="26" y="84" width="3" height="21" fill="#fff4b5" opacity="0.22"/><rect x="62" y="84" width="3" height="21" fill="#fff4b5" opacity="0.22"/><rect x="191" y="84" width="3" height="21" fill="#fff4b5" opacity="0.22"/><rect x="227" y="84" width="3" height="21" fill="#fff4b5" opacity="0.22"/><rect x="23" y="93" width="3" height="3" fill="#fff4b5" opacity="0.22"/><rect x="65" y="93" width="3" height="3" fill="#fff4b5" opacity="0.22"/><rect x="188" y="93" width="3" height="3" fill="#fff4b5" opacity="0.22"/><rect x="230" y="93" width="3" height="3" fill="#fff4b5" opacity="0.22"/><rect x="47" y="108" width="6" height="6" fill="#fff4b5" opacity="0.22"/><rect x="203" y="108" width="6" height="6" fill="#fff4b5" opacity="0.22"/><rect x="23" y="156" width="3" height="63" fill="#fff4b5" opacity="0.22"/><rect x="230" y="156" width="3" height="63" fill="#fff4b5" opacity="0.22"/><rect x="17" y="159" width="6" height="57" fill="#fff4b5" opacity="0.22"/><rect x="233" y="159" width="6" height="57" fill="#fff4b5" opacity="0.22"/><rect x="14" y="162" width="3" height="51" fill="#fff4b5" opacity="0.22"/><rect x="239" y="162" width="3" height="51" fill="#fff4b5" opacity="0.22"/><rect x="11" y="165" width="3" height="45" fill="#fff4b5" opacity="0.22"/><rect x="26" y="165" width="27" height="51" fill="#fff4b5" opacity="0.22"/><rect x="203" y="165" width="27" height="51" fill="#fff4b5" opacity="0.22"/><rect x="242" y="165" width="3" height="45" fill="#fff4b5" opacity="0.22"/><rect x="8" y="168" width="3" height="39" fill="#fff4b5" opacity="0.22"/><rect x="245" y="168" width="3" height="39" fill="#fff4b5" opacity="0.22"/><rect x="53" y="171" width="21" height="27" fill="#fff4b5" opacity="0.22"/><rect x="182" y="171" width="21" height="27" fill="#fff4b5" opacity="0.22"/><rect x="74" y="183" width="3" height="3" fill="#fff4b5" opacity="0.22"/><rect x="179" y="183" width="3" height="3" fill="#fff4b5" opacity="0.22"/><rect x="98" y="195" width="9" height="33" fill="#fff4b5" opacity="0.22"/><rect x="149" y="195" width="9" height="33" fill="#fff4b5" opacity="0.22"/><rect x="53" y="198" width="18" height="6" fill="#fff4b5" opacity="0.22"/><rect x="185" y="198" width="18" height="6" fill="#fff4b5" opacity="0.22"/><rect x="53" y="204" width="15" height="3" fill="#fff4b5" opacity="0.22"/><rect x="80" y="204" width="18" height="18" fill="#fff4b5" opacity="0.22"/><rect x="158" y="204" width="18" height="18" fill="#fff4b5" opacity="0.22"/><rect x="188" y="204" width="15" height="3" fill="#fff4b5" opacity="0.22"/><rect x="53" y="207" width="12" height="3" fill="#fff4b5" opacity="0.22"/><rect x="191" y="207" width="12" height="3" fill="#fff4b5" opacity="0.22"/><rect x="53" y="210" width="6" height="3" fill="#fff4b5" opacity="0.22"/><rect x="77" y="210" width="3" height="3" fill="#fff4b5" opacity="0.22"/><rect x="107" y="210" width="9" height="3" fill="#fff4b5" opacity="0.22"/><rect x="140" y="210" width="9" height="3" fill="#fff4b5" opacity="0.22"/><rect x="176" y="210" width="3" height="3" fill="#fff4b5" opacity="0.22"/><rect x="197" y="210" width="6" height="3" fill="#fff4b5" opacity="0.22"/><rect x="53" y="213" width="3" height="3" fill="#fff4b5" opacity="0.22"/><rect x="107" y="213" width="6" height="9" fill="#fff4b5" opacity="0.22"/><rect x="143" y="213" width="6" height="9" fill="#fff4b5" opacity="0.22"/><rect x="200" y="213" width="3" height="3" fill="#fff4b5" opacity="0.22"/><rect x="26" y="216" width="24" height="3" fill="#fff4b5" opacity="0.22"/><rect x="206" y="216" width="24" height="3" fill="#fff4b5" opacity="0.22"/><rect x="35" y="219" width="3" height="3" fill="#fff4b5" opacity="0.22"/><rect x="218" y="219" width="3" height="3" fill="#fff4b5" opacity="0.22"/><rect x="83" y="222" width="15" height="3" fill="#fff4b5" opacity="0.22"/><rect x="107" y="222" width="3" height="3" fill="#fff4b5" opacity="0.22"/><rect x="146" y="222" width="3" height="3" fill="#fff4b5" opacity="0.22"/><rect x="158" y="222" width="15" height="3" fill="#fff4b5" opacity="0.22"/><rect x="86" y="225" width="12" height="3" fill="#fff4b5" opacity="0.22"/><rect x="158" y="225" width="12" height="3" fill="#fff4b5" opacity="0.22"/><rect x="95" y="228" width="3" height="3" fill="#fff4b5" opacity="0.22"/><rect x="158" y="228" width="3" height="3" fill="#fff4b5" opacity="0.22"/><rect x="32" y="42" width="24" height="24" fill="#416249"/><rect x="200" y="42" width="24" height="24" fill="#416249"/><rect x="32" y="210" width="24" height="24" fill="#416249"/><rect x="200" y="210" width="24" height="24" fill="#416249"/><rect x="122" y="30" width="12" height="36" fill="#558baf"/><rect x="122" y="102" width="12" height="24" fill="#558baf"/><rect x="122" y="150" width="12" height="24" fill="#558baf"/><rect x="122" y="210" width="12" height="36" fill="#558baf"/><rect x="80" y="54" width="18" height="15" fill="#416249"/><rect x="158" y="54" width="18" height="15" fill="#416249"/><rect x="80" y="207" width="18" height="15" fill="#416249"/><rect x="158" y="207" width="18" height="15" fill="#416249"/><rect x="113" y="72" width="30" height="24" fill="none" stroke="#f9d766" stroke-width="2"/><rect x="113" y="180" width="30" height="24" fill="none" stroke="#f9d766" stroke-width="2"/><rect x="113" y="126" width="30" height="24" fill="none" stroke="#f9d766" stroke-width="2"/><circle cx="63.5" cy="160.5" r="3" fill="#ba572f"/><circle cx="63.5" cy="118.5" r="3" fill="#683c21"/><circle cx="96.5" cy="97.5" r="3" fill="#ba572f"/><circle cx="87.5" cy="193.5" r="3" fill="#683c21"/><circle cx="192.5" cy="160.5" r="3" fill="#ba572f"/><circle cx="192.5" cy="118.5" r="3" fill="#683c21"/><circle cx="159.5" cy="97.5" r="3" fill="#ba572f"/><circle cx="168.5" cy="193.5" r="3" fill="#683c21"/><circle cx="51.5" cy="139.5" r="5" fill="#319cdf"/><circle cx="204.5" cy="139.5" r="5" fill="#dc603c"/></g><g transform="translate(660,0)"><text x="8" y="20" font-size="12">Ellionar · Channel Gardens</text><rect x="8" y="30" width="240" height="216" fill="#694221"/><rect x="8" y="126" width="240" height="24" fill="#b28049"/><rect x="32" y="42" width="24" height="24" fill="#416249"/><rect x="200" y="42" width="24" height="24" fill="#416249"/><rect x="32" y="210" width="24" height="24" fill="#416249"/><rect x="200" y="210" width="24" height="24" fill="#416249"/><rect x="122" y="30" width="12" height="36" fill="#558baf"/><rect x="122" y="102" width="12" height="24" fill="#558baf"/><rect x="122" y="150" width="12" height="24" fill="#558baf"/><rect x="122" y="210" width="12" height="36" fill="#558baf"/><rect x="113" y="72" width="30" height="24" fill="none" stroke="#f9d766" stroke-width="2"/><rect x="113" y="180" width="30" height="24" fill="none" stroke="#f9d766" stroke-width="2"/><rect x="113" y="126" width="30" height="24" fill="none" stroke="#f9d766" stroke-width="2"/><circle cx="63.5" cy="160.5" r="3" fill="#ba572f"/><circle cx="63.5" cy="118.5" r="3" fill="#683c21"/><circle cx="69.5" cy="205.5" r="3" fill="#ba572f"/><circle cx="69.5" cy="73.5" r="3" fill="#683c21"/><circle cx="192.5" cy="160.5" r="3" fill="#ba572f"/><circle cx="192.5" cy="118.5" r="3" fill="#683c21"/><circle cx="186.5" cy="205.5" r="3" fill="#ba572f"/><circle cx="186.5" cy="73.5" r="3" fill="#683c21"/><circle cx="51.5" cy="139.5" r="5" fill="#319cdf"/><circle cx="204.5" cy="139.5" r="5" fill="#dc603c"/></g><g transform="translate(0,280)"><text x="8" y="20" font-size="12">Pale Meridian · Observation Road</text><rect x="8" y="30" width="240" height="216" fill="#d8e1f2"/><rect x="8" y="126" width="240" height="24" fill="#b28049"/><rect x="32" y="42" width="24" height="24" fill="#416249"/><rect x="200" y="42" width="24" height="24" fill="#416249"/><rect x="32" y="210" width="24" height="24" fill="#416249"/><rect x="200" y="210" width="24" height="24" fill="#416249"/><rect x="71" y="54" width="21" height="51" fill="#787580"/><rect x="164" y="54" width="21" height="51" fill="#787580"/><rect x="71" y="171" width="21" height="51" fill="#787580"/><rect x="164" y="171" width="21" height="51" fill="#787580"/><rect x="113" y="72" width="30" height="24" fill="none" stroke="#f9d766" stroke-width="2"/><rect x="113" y="180" width="30" height="24" fill="none" stroke="#f9d766" stroke-width="2"/><rect x="113" y="126" width="30" height="24" fill="none" stroke="#f9d766" stroke-width="2"/><circle cx="63.5" cy="160.5" r="3" fill="#ba572f"/><circle cx="63.5" cy="118.5" r="3" fill="#683c21"/><circle cx="69.5" cy="205.5" r="3" fill="#ba572f"/><circle cx="69.5" cy="73.5" r="3" fill="#683c21"/><circle cx="192.5" cy="160.5" r="3" fill="#ba572f"/><circle cx="192.5" cy="118.5" r="3" fill="#683c21"/><circle cx="186.5" cy="205.5" r="3" fill="#ba572f"/><circle cx="186.5" cy="73.5" r="3" fill="#683c21"/><circle cx="51.5" cy="139.5" r="5" fill="#319cdf"/><circle cx="204.5" cy="139.5" r="5" fill="#dc603c"/></g><g transform="translate(330,280)"><text x="8" y="20" font-size="12">Ru’Lora · Fringe Path</text><rect x="8" y="30" width="240" height="216" fill="#31331a"/><rect x="8" y="126" width="240" height="24" fill="#b28049"/><rect x="101" y="30" width="54" height="90" fill="#7b6d6e"/><rect x="101" y="156" width="54" height="90" fill="#7b6d6e"/><rect x="32" y="42" width="24" height="24" fill="#416249"/><rect x="200" y="42" width="24" height="24" fill="#416249"/><rect x="32" y="210" width="24" height="24" fill="#416249"/><rect x="200" y="210" width="24" height="24" fill="#416249"/><rect x="71" y="54" width="21" height="51" fill="#787580"/><rect x="164" y="54" width="21" height="51" fill="#787580"/><rect x="71" y="171" width="21" height="51" fill="#787580"/><rect x="164" y="171" width="21" height="51" fill="#787580"/><rect x="113" y="72" width="30" height="24" fill="none" stroke="#f9d766" stroke-width="2"/><rect x="113" y="180" width="30" height="24" fill="none" stroke="#f9d766" stroke-width="2"/><rect x="113" y="126" width="30" height="24" fill="none" stroke="#f9d766" stroke-width="2"/><circle cx="63.5" cy="160.5" r="3" fill="#ba572f"/><circle cx="63.5" cy="118.5" r="3" fill="#683c21"/><circle cx="69.5" cy="205.5" r="3" fill="#ba572f"/><circle cx="69.5" cy="73.5" r="3" fill="#683c21"/><circle cx="192.5" cy="160.5" r="3" fill="#ba572f"/><circle cx="192.5" cy="118.5" r="3" fill="#683c21"/><circle cx="186.5" cy="205.5" r="3" fill="#ba572f"/><circle cx="186.5" cy="73.5" r="3" fill="#683c21"/><circle cx="51.5" cy="139.5" r="5" fill="#319cdf"/><circle cx="204.5" cy="139.5" r="5" fill="#dc603c"/></g><g transform="translate(660,280)"><text x="8" y="20" font-size="12">Ru’Lora · Salt Hollows</text><rect x="8" y="30" width="240" height="216" fill="#7b6d6e"/><rect x="8" y="126" width="240" height="24" fill="#b28049"/><rect x="32" y="42" width="24" height="24" fill="#416249"/><rect x="200" y="42" width="24" height="24" fill="#416249"/><rect x="32" y="210" width="24" height="24" fill="#416249"/><rect x="200" y="210" width="24" height="24" fill="#416249"/><rect x="71" y="54" width="21" height="51" fill="#787580"/><rect x="164" y="54" width="21" height="51" fill="#787580"/><rect x="71" y="171" width="21" height="51" fill="#787580"/><rect x="164" y="171" width="21" height="51" fill="#787580"/><rect x="113" y="72" width="30" height="24" fill="none" stroke="#f9d766" stroke-width="2"/><rect x="113" y="180" width="30" height="24" fill="none" stroke="#f9d766" stroke-width="2"/><rect x="113" y="126" width="30" height="24" fill="none" stroke="#f9d766" stroke-width="2"/><circle cx="63.5" cy="160.5" r="3" fill="#ba572f"/><circle cx="63.5" cy="118.5" r="3" fill="#683c21"/><circle cx="69.5" cy="205.5" r="3" fill="#ba572f"/><circle cx="69.5" cy="73.5" r="3" fill="#683c21"/><circle cx="192.5" cy="160.5" r="3" fill="#ba572f"/><circle cx="192.5" cy="118.5" r="3" fill="#683c21"/><circle cx="186.5" cy="205.5" r="3" fill="#ba572f"/><circle cx="186.5" cy="73.5" r="3" fill="#683c21"/><circle cx="51.5" cy="139.5" r="5" fill="#319cdf"/><circle cx="204.5" cy="139.5" r="5" fill="#dc603c"/></g><g transform="translate(0,560)"><text x="8" y="20" font-size="12">Sereward · Cistern Road</text><rect x="8" y="30" width="240" height="216" fill="#e29d6a"/><rect x="8" y="126" width="240" height="24" fill="#b28049"/><rect x="23" y="78" width="45" height="24" fill="#be9951"/><rect x="188" y="78" width="45" height="24" fill="#be9951"/><rect x="32" y="42" width="24" height="24" fill="#416249"/><rect x="200" y="42" width="24" height="24" fill="#416249"/><rect x="32" y="210" width="24" height="24" fill="#416249"/><rect x="200" y="210" width="24" height="24" fill="#416249"/><rect x="77" y="51" width="30" height="48" fill="#558baf"/><rect x="149" y="51" width="30" height="48" fill="#558baf"/><rect x="77" y="177" width="30" height="48" fill="#558baf"/><rect x="149" y="177" width="30" height="48" fill="#558baf"/><rect x="113" y="72" width="30" height="24" fill="none" stroke="#f9d766" stroke-width="2"/><rect x="113" y="180" width="30" height="24" fill="none" stroke="#f9d766" stroke-width="2"/><rect x="113" y="126" width="30" height="24" fill="none" stroke="#f9d766" stroke-width="2"/><circle cx="63.5" cy="160.5" r="3" fill="#ba572f"/><circle cx="63.5" cy="118.5" r="3" fill="#683c21"/><circle cx="69.5" cy="205.5" r="3" fill="#ba572f"/><circle cx="69.5" cy="73.5" r="3" fill="#683c21"/><circle cx="192.5" cy="160.5" r="3" fill="#ba572f"/><circle cx="192.5" cy="118.5" r="3" fill="#683c21"/><circle cx="186.5" cy="205.5" r="3" fill="#ba572f"/><circle cx="186.5" cy="73.5" r="3" fill="#683c21"/><circle cx="51.5" cy="139.5" r="5" fill="#319cdf"/><circle cx="204.5" cy="139.5" r="5" fill="#dc603c"/></g><g transform="translate(330,560)"><text x="8" y="20" font-size="12">Siltmouths · Reed Crossings</text><rect x="8" y="30" width="240" height="216" fill="#747262"/><rect x="8" y="126" width="240" height="24" fill="#b28049"/><rect x="32" y="42" width="24" height="24" fill="#416249"/><rect x="200" y="42" width="24" height="24" fill="#416249"/><rect x="32" y="210" width="24" height="24" fill="#416249"/><rect x="200" y="210" width="24" height="24" fill="#416249"/><rect x="92" y="30" width="9" height="42" fill="#558baf"/><rect x="155" y="30" width="9" height="42" fill="#558baf"/><rect x="92" y="105" width="9" height="18" fill="#558baf"/><rect x="155" y="105" width="9" height="18" fill="#558baf"/><rect x="92" y="153" width="9" height="18" fill="#558baf"/><rect x="155" y="153" width="9" height="18" fill="#558baf"/><rect x="92" y="204" width="9" height="42" fill="#558baf"/><rect x="155" y="204" width="9" height="42" fill="#558baf"/><rect x="113" y="72" width="30" height="24" fill="none" stroke="#f9d766" stroke-width="2"/><rect x="113" y="180" width="30" height="24" fill="none" stroke="#f9d766" stroke-width="2"/><rect x="113" y="126" width="30" height="24" fill="none" stroke="#f9d766" stroke-width="2"/><circle cx="63.5" cy="160.5" r="3" fill="#ba572f"/><circle cx="63.5" cy="118.5" r="3" fill="#683c21"/><circle cx="69.5" cy="205.5" r="3" fill="#ba572f"/><circle cx="69.5" cy="73.5" r="3" fill="#683c21"/><circle cx="192.5" cy="160.5" r="3" fill="#ba572f"/><circle cx="192.5" cy="118.5" r="3" fill="#683c21"/><circle cx="186.5" cy="205.5" r="3" fill="#ba572f"/><circle cx="186.5" cy="73.5" r="3" fill="#683c21"/><circle cx="51.5" cy="139.5" r="5" fill="#319cdf"/><circle cx="204.5" cy="139.5" r="5" fill="#dc603c"/></g><g transform="translate(660,560)"><text x="8" y="20" font-size="12">Sombral Mere · Shore Gardens</text><rect x="8" y="30" width="240" height="216" fill="#595c5d"/><rect x="8" y="126" width="240" height="24" fill="#b28049"/><rect x="32" y="42" width="24" height="24" fill="#416249"/><rect x="200" y="42" width="24" height="24" fill="#416249"/><rect x="32" y="210" width="24" height="24" fill="#416249"/><rect x="200" y="210" width="24" height="24" fill="#416249"/><rect x="77" y="51" width="30" height="48" fill="#558baf"/><rect x="149" y="51" width="30" height="48" fill="#558baf"/><rect x="77" y="177" width="30" height="48" fill="#558baf"/><rect x="149" y="177" width="30" height="48" fill="#558baf"/><rect x="113" y="72" width="30" height="24" fill="none" stroke="#f9d766" stroke-width="2"/><rect x="113" y="180" width="30" height="24" fill="none" stroke="#f9d766" stroke-width="2"/><rect x="113" y="126" width="30" height="24" fill="none" stroke="#f9d766" stroke-width="2"/><circle cx="63.5" cy="160.5" r="3" fill="#ba572f"/><circle cx="63.5" cy="118.5" r="3" fill="#683c21"/><circle cx="69.5" cy="205.5" r="3" fill="#ba572f"/><circle cx="69.5" cy="73.5" r="3" fill="#683c21"/><circle cx="192.5" cy="160.5" r="3" fill="#ba572f"/><circle cx="192.5" cy="118.5" r="3" fill="#683c21"/><circle cx="186.5" cy="205.5" r="3" fill="#ba572f"/><circle cx="186.5" cy="73.5" r="3" fill="#683c21"/><circle cx="51.5" cy="139.5" r="5" fill="#319cdf"/><circle cx="204.5" cy="139.5" r="5" fill="#dc603c"/></g><g transform="translate(0,840)"><text x="8" y="20" font-size="12">Underbough · Rootways</text><rect x="8" y="30" width="288" height="216" fill="#5b3926"/><rect x="8" y="126" width="288" height="24" fill="#b28049"/><rect x="116" y="66" width="72" height="36" fill="#849543"/><rect x="116" y="174" width="72" height="36" fill="#849543"/><rect x="50" y="33" width="3" height="69" fill="#fff4b5" opacity="0.22"/><rect x="251" y="33" width="3" height="69" fill="#fff4b5" opacity="0.22"/><rect x="41" y="36" width="9" height="54" fill="#fff4b5" opacity="0.22"/><rect x="53" y="36" width="9" height="66" fill="#fff4b5" opacity="0.22"/><rect x="242" y="36" width="9" height="66" fill="#fff4b5" opacity="0.22"/><rect x="254" y="36" width="9" height="54" fill="#fff4b5" opacity="0.22"/><rect x="38" y="39" width="3" height="33" fill="#fff4b5" opacity="0.22"/><rect x="62" y="39" width="3" height="66" fill="#fff4b5" opacity="0.22"/><rect x="239" y="39" width="3" height="66" fill="#fff4b5" opacity="0.22"/><rect x="263" y="39" width="3" height="33" fill="#fff4b5" opacity="0.22"/><rect x="35" y="42" width="3" height="27" fill="#fff4b5" opacity="0.22"/><rect x="65" y="42" width="3" height="63" fill="#fff4b5" opacity="0.22"/><rect x="236" y="42" width="3" height="63" fill="#fff4b5" opacity="0.22"/><rect x="266" y="42" width="3" height="27" fill="#fff4b5" opacity="0.22"/><rect x="32" y="45" width="3" height="21" fill="#fff4b5" opacity="0.22"/><rect x="68" y="45" width="3" height="63" fill="#fff4b5" opacity="0.22"/><rect x="233" y="45" width="3" height="63" fill="#fff4b5" opacity="0.22"/><rect x="269" y="45" width="3" height="21" fill="#fff4b5" opacity="0.22"/><rect x="71" y="48" width="12" height="57" fill="#fff4b5" opacity="0.22"/><rect x="221" y="48" width="12" height="57" fill="#fff4b5" opacity="0.22"/><rect x="83" y="51" width="6" height="51" fill="#fff4b5" opacity="0.22"/><rect x="215" y="51" width="6" height="51" fill="#fff4b5" opacity="0.22"/><rect x="29" y="54" width="3" height="3" fill="#fff4b5" opacity="0.22"/><rect x="89" y="54" width="3" height="45" fill="#fff4b5" opacity="0.22"/><rect x="212" y="54" width="3" height="45" fill="#fff4b5" opacity="0.22"/><rect x="272" y="54" width="3" height="3" fill="#fff4b5" opacity="0.22"/><rect x="92" y="57" width="3" height="39" fill="#fff4b5" opacity="0.22"/><rect x="209" y="57" width="3" height="39" fill="#fff4b5" opacity="0.22"/><rect x="95" y="63" width="3" height="27" fill="#fff4b5" opacity="0.22"/><rect x="206" y="63" width="3" height="27" fill="#fff4b5" opacity="0.22"/><rect x="38" y="75" width="3" height="3" fill="#fff4b5" opacity="0.22"/><rect x="98" y="75" width="3" height="3" fill="#fff4b5" opacity="0.22"/><rect x="203" y="75" width="3" height="3" fill="#fff4b5" opacity="0.22"/><rect x="263" y="75" width="3" height="3" fill="#fff4b5" opacity="0.22"/><rect x="44" y="90" width="6" height="6" fill="#fff4b5" opacity="0.22"/><rect x="254" y="90" width="6" height="6" fill="#fff4b5" opacity="0.22"/><rect x="47" y="96" width="3" height="3" fill="#fff4b5" opacity="0.22"/><rect x="254" y="96" width="3" height="3" fill="#fff4b5" opacity="0.22"/><rect x="56" y="102" width="6" height="3" fill="#fff4b5" opacity="0.22"/><rect x="242" y="102" width="6" height="3" fill="#fff4b5" opacity="0.22"/><rect x="98" y="159" width="3" height="78" fill="#fff4b5" opacity="0.22"/><rect x="203" y="159" width="3" height="78" fill="#fff4b5" opacity="0.22"/><rect x="89" y="162" width="9" height="72" fill="#fff4b5" opacity="0.22"/><rect x="101" y="162" width="9" height="72" fill="#fff4b5" opacity="0.22"/><rect x="194" y="162" width="9" height="72" fill="#fff4b5" opacity="0.22"/><rect x="206" y="162" width="9" height="72" fill="#fff4b5" opacity="0.22"/><rect x="86" y="165" width="3" height="69" fill="#fff4b5" opacity="0.22"/><rect x="110" y="165" width="3" height="69" fill="#fff4b5" opacity="0.22"/><rect x="191" y="165" width="3" height="69" fill="#fff4b5" opacity="0.22"/><rect x="215" y="165" width="3" height="69" fill="#fff4b5" opacity="0.22"/><rect x="83" y="168" width="3" height="63" fill="#fff4b5" opacity="0.22"/><rect x="113" y="168" width="3" height="15" fill="#fff4b5" opacity="0.22"/><rect x="188" y="168" width="3" height="15" fill="#fff4b5" opacity="0.22"/><rect x="218" y="168" width="3" height="63" fill="#fff4b5" opacity="0.22"/><rect x="80" y="174" width="3" height="57" fill="#fff4b5" opacity="0.22"/><rect x="116" y="174" width="3" height="9" fill="#fff4b5" opacity="0.22"/><rect x="185" y="174" width="3" height="9" fill="#fff4b5" opacity="0.22"/><rect x="221" y="174" width="3" height="57" fill="#fff4b5" opacity="0.22"/><rect x="77" y="177" width="3" height="51" fill="#fff4b5" opacity="0.22"/><rect x="119" y="177" width="3" height="6" fill="#fff4b5" opacity="0.22"/><rect x="182" y="177" width="3" height="6" fill="#fff4b5" opacity="0.22"/><rect x="224" y="177" width="3" height="51" fill="#fff4b5" opacity="0.22"/><rect x="74" y="180" width="3" height="45" fill="#fff4b5" opacity="0.22"/><rect x="122" y="180" width="3" height="3" fill="#fff4b5" opacity="0.22"/><rect x="179" y="180" width="3" height="3" fill="#fff4b5" opacity="0.22"/><rect x="227" y="180" width="3" height="45" fill="#fff4b5" opacity="0.22"/><rect x="71" y="183" width="3" height="39" fill="#fff4b5" opacity="0.22"/><rect x="230" y="183" width="3" height="39" fill="#fff4b5" opacity="0.22"/><rect x="68" y="189" width="3" height="27" fill="#fff4b5" opacity="0.22"/><rect x="233" y="189" width="3" height="27" fill="#fff4b5" opacity="0.22"/><rect x="50" y="201" width="3" height="39" fill="#fff4b5" opacity="0.22"/><rect x="65" y="201" width="3" height="3" fill="#fff4b5" opacity="0.22"/><rect x="236" y="201" width="3" height="3" fill="#fff4b5" opacity="0.22"/><rect x="251" y="201" width="3" height="39" fill="#fff4b5" opacity="0.22"/><rect x="41" y="204" width="9" height="33" fill="#fff4b5" opacity="0.22"/><rect x="53" y="204" width="9" height="33" fill="#fff4b5" opacity="0.22"/><rect x="113" y="204" width="18" height="12" fill="#fff4b5" opacity="0.22"/><rect x="173" y="204" width="18" height="12" fill="#fff4b5" opacity="0.22"/><rect x="242" y="204" width="9" height="33" fill="#fff4b5" opacity="0.22"/><rect x="254" y="204" width="9" height="33" fill="#fff4b5" opacity="0.22"/><rect x="38" y="207" width="3" height="27" fill="#fff4b5" opacity="0.22"/><rect x="62" y="207" width="3" height="27" fill="#fff4b5" opacity="0.22"/><rect x="239" y="207" width="3" height="27" fill="#fff4b5" opacity="0.22"/><rect x="263" y="207" width="3" height="27" fill="#fff4b5" opacity="0.22"/><rect x="35" y="210" width="3" height="21" fill="#fff4b5" opacity="0.22"/><rect x="65" y="210" width="3" height="21" fill="#fff4b5" opacity="0.22"/><rect x="236" y="210" width="3" height="21" fill="#fff4b5" opacity="0.22"/><rect x="266" y="210" width="3" height="21" fill="#fff4b5" opacity="0.22"/><rect x="113" y="216" width="15" height="6" fill="#fff4b5" opacity="0.22"/><rect x="176" y="216" width="15" height="6" fill="#fff4b5" opacity="0.22"/><rect x="32" y="219" width="3" height="3" fill="#fff4b5" opacity="0.22"/><rect x="68" y="219" width="3" height="3" fill="#fff4b5" opacity="0.22"/><rect x="233" y="219" width="3" height="3" fill="#fff4b5" opacity="0.22"/><rect x="269" y="219" width="3" height="3" fill="#fff4b5" opacity="0.22"/><rect x="113" y="222" width="12" height="3" fill="#fff4b5" opacity="0.22"/><rect x="179" y="222" width="12" height="3" fill="#fff4b5" opacity="0.22"/><rect x="113" y="225" width="9" height="3" fill="#fff4b5" opacity="0.22"/><rect x="182" y="225" width="9" height="3" fill="#fff4b5" opacity="0.22"/><rect x="113" y="228" width="6" height="3" fill="#fff4b5" opacity="0.22"/><rect x="185" y="228" width="6" height="3" fill="#fff4b5" opacity="0.22"/><rect x="32" y="42" width="24" height="24" fill="#416249"/><rect x="248" y="42" width="24" height="24" fill="#416249"/><rect x="32" y="210" width="24" height="24" fill="#416249"/><rect x="248" y="210" width="24" height="24" fill="#416249"/><rect x="92" y="66" width="24" height="42" fill="#416249"/><rect x="188" y="66" width="24" height="42" fill="#416249"/><rect x="92" y="168" width="24" height="42" fill="#416249"/><rect x="188" y="168" width="24" height="42" fill="#416249"/><rect x="128" y="114" width="12" height="48" fill="#416249"/><rect x="164" y="114" width="12" height="48" fill="#416249"/><rect x="137" y="72" width="30" height="24" fill="none" stroke="#f9d766" stroke-width="2"/><rect x="137" y="180" width="30" height="24" fill="none" stroke="#f9d766" stroke-width="2"/><rect x="140" y="126" width="24" height="24" fill="none" stroke="#f9d766" stroke-width="2"/><circle cx="63.5" cy="160.5" r="3" fill="#ba572f"/><circle cx="63.5" cy="118.5" r="3" fill="#683c21"/><circle cx="123.5" cy="82.5" r="3" fill="#ba572f"/><circle cx="123.5" cy="193.5" r="3" fill="#683c21"/><circle cx="240.5" cy="160.5" r="3" fill="#ba572f"/><circle cx="240.5" cy="118.5" r="3" fill="#683c21"/><circle cx="180.5" cy="82.5" r="3" fill="#ba572f"/><circle cx="180.5" cy="193.5" r="3" fill="#683c21"/><circle cx="51.5" cy="139.5" r="5" fill="#319cdf"/><circle cx="252.5" cy="139.5" r="5" fill="#dc603c"/></g><g transform="translate(330,840)"><text x="8" y="20" font-size="12">Vesperra · Pale Clearings</text><rect x="8" y="30" width="288" height="216" fill="#31331a"/><rect x="8" y="126" width="288" height="24" fill="#b28049"/><rect x="32" y="42" width="24" height="24" fill="#416249"/><rect x="248" y="42" width="24" height="24" fill="#416249"/><rect x="32" y="210" width="24" height="24" fill="#416249"/><rect x="248" y="210" width="24" height="24" fill="#416249"/><rect x="92" y="66" width="24" height="42" fill="#416249"/><rect x="188" y="66" width="24" height="42" fill="#416249"/><rect x="92" y="168" width="24" height="42" fill="#416249"/><rect x="188" y="168" width="24" height="42" fill="#416249"/><rect x="137" y="72" width="30" height="24" fill="none" stroke="#f9d766" stroke-width="2"/><rect x="137" y="180" width="30" height="24" fill="none" stroke="#f9d766" stroke-width="2"/><rect x="137" y="126" width="30" height="24" fill="none" stroke="#f9d766" stroke-width="2"/><circle cx="63.5" cy="160.5" r="3" fill="#ba572f"/><circle cx="63.5" cy="118.5" r="3" fill="#683c21"/><circle cx="69.5" cy="205.5" r="3" fill="#ba572f"/><circle cx="69.5" cy="73.5" r="3" fill="#683c21"/><circle cx="240.5" cy="160.5" r="3" fill="#ba572f"/><circle cx="240.5" cy="118.5" r="3" fill="#683c21"/><circle cx="234.5" cy="205.5" r="3" fill="#ba572f"/><circle cx="234.5" cy="73.5" r="3" fill="#683c21"/><circle cx="51.5" cy="139.5" r="5" fill="#319cdf"/><circle cx="252.5" cy="139.5" r="5" fill="#dc603c"/></g><g transform="translate(660,840)"><text x="8" y="20" font-size="12">Veyrholds · Slate Saddle</text><rect x="8" y="30" width="240" height="216" fill="#555552"/><rect x="8" y="126" width="240" height="24" fill="#b28049"/><rect x="32" y="42" width="24" height="24" fill="#416249"/><rect x="200" y="42" width="24" height="24" fill="#416249"/><rect x="32" y="210" width="24" height="24" fill="#416249"/><rect x="200" y="210" width="24" height="24" fill="#416249"/><rect x="71" y="54" width="21" height="51" fill="#787580"/><rect x="164" y="54" width="21" height="51" fill="#787580"/><rect x="71" y="171" width="21" height="51" fill="#787580"/><rect x="164" y="171" width="21" height="51" fill="#787580"/><rect x="113" y="72" width="30" height="24" fill="none" stroke="#f9d766" stroke-width="2"/><rect x="113" y="180" width="30" height="24" fill="none" stroke="#f9d766" stroke-width="2"/><rect x="113" y="126" width="30" height="24" fill="none" stroke="#f9d766" stroke-width="2"/><circle cx="63.5" cy="160.5" r="3" fill="#ba572f"/><circle cx="63.5" cy="118.5" r="3" fill="#683c21"/><circle cx="69.5" cy="205.5" r="3" fill="#ba572f"/><circle cx="69.5" cy="73.5" r="3" fill="#683c21"/><circle cx="192.5" cy="160.5" r="3" fill="#ba572f"/><circle cx="192.5" cy="118.5" r="3" fill="#683c21"/><circle cx="186.5" cy="205.5" r="3" fill="#ba572f"/><circle cx="186.5" cy="73.5" r="3" fill="#683c21"/><circle cx="51.5" cy="139.5" r="5" fill="#319cdf"/><circle cx="204.5" cy="139.5" r="5" fill="#dc603c"/></g></svg>